<svg width="35" height="35" viewBox="0 0 35 35" fill="none" xmlns="http://www.w3.org/2000/svg">
<circle cx="17.5" cy="17.5" r="17.5" fill="white"/>
<g clip-path="url(#clip0_4_43)">
<path d="M29.211 14.7129H24.5638L21.1809 6.56239C21.0139 6.15994 20.5521 5.96921 20.1498 6.13612C19.7473 6.30317 19.5564 6.76485 19.7235 7.16729L22.8553 14.7129H13.1447L16.2766 7.16729C16.4436 6.76485 16.2527 6.30312 15.8503 6.13612C15.448 5.96911 14.9861 6.15994 14.8191 6.56239L11.4362 14.7129H6.789C6.35326 14.7129 6 15.0662 6 15.5019C6 15.9377 6.35326 16.291 6.789 16.291H7.26346L8.81032 24.7508C9.1466 26.5897 10.7475 27.9244 12.6168 27.9244H23.3833C25.2527 27.9244 26.8535 26.5897 27.1897 24.7508L28.7366 16.291H29.2111C29.6468 16.291 30.0001 15.9377 30.0001 15.5019C30.0001 15.0662 29.6467 14.7129 29.211 14.7129ZM25.6374 24.4669C25.4382 25.556 24.4902 26.3463 23.3832 26.3463H12.6168C11.5098 26.3463 10.5617 25.556 10.3626 24.4669L8.87439 16.3282H27.1256L25.6374 24.4669Z" fill="black"/>
</g>
<defs>
<clipPath id="clip0_4_43">
<rect width="24" height="24" fill="white" transform="translate(6 5)"/>
</clipPath>
</defs>
</svg>
