<svg width="26" height="24" viewBox="0 0 26 24" fill="none" xmlns="http://www.w3.org/2000/svg">
<path d="M12.6476 7.94748C10.3523 7.94748 8.47921 9.73427 8.47921 11.9237C8.47921 14.1132 10.3523 15.9 12.6476 15.9C14.9428 15.9 16.8159 14.1132 16.8159 11.9237C16.8159 9.73427 14.9428 7.94748 12.6476 7.94748ZM25.1496 11.9237C25.1496 10.2772 25.1652 8.64549 25.0683 7.00188C24.9712 5.09279 24.5147 3.39846 23.0513 2.00244C21.5846 0.603443 19.8116 0.170916 17.8103 0.078444C16.0842 -0.0140276 14.3737 0.000887268 12.6507 0.000887268C10.9246 0.000887268 9.21407 -0.0140276 7.49106 0.078444C5.48975 0.170916 3.71359 0.606426 2.25012 2.00244C0.783534 3.40145 0.330112 5.09279 0.233173 7.00188C0.136235 8.64847 0.15187 10.2801 0.15187 11.9237C0.15187 13.5674 0.136235 15.202 0.233173 16.8456C0.330112 18.7547 0.786662 20.449 2.25012 21.845C3.7167 23.2441 5.48975 23.6765 7.49106 23.7691C9.2172 23.8616 10.9277 23.8466 12.6507 23.8466C14.3768 23.8466 16.0873 23.8616 17.8103 23.7691C19.8116 23.6765 21.5878 23.241 23.0513 21.845C24.5179 20.446 24.9712 18.7547 25.0683 16.8456C25.1683 15.202 25.1496 13.5703 25.1496 11.9237ZM12.6476 18.0418C9.09837 18.0418 6.23399 15.3094 6.23399 11.9237C6.23399 8.5381 9.09837 5.80572 12.6476 5.80572C16.1968 5.80572 19.0612 8.5381 19.0612 11.9237C19.0612 15.3094 16.1968 18.0418 12.6476 18.0418ZM19.3238 6.98398C18.4952 6.98398 17.826 6.34562 17.826 5.55515C17.826 4.76466 18.4952 4.12631 19.3238 4.12631C20.1525 4.12631 20.8217 4.76466 20.8217 5.55515C20.8219 5.74284 20.7834 5.92876 20.7082 6.10222C20.633 6.27567 20.5227 6.43328 20.3835 6.56601C20.2444 6.69874 20.0791 6.80397 19.8973 6.8757C19.7154 6.94741 19.5206 6.98421 19.3238 6.98398Z" fill="#1E1E1E"/>
</svg>
