<svg width="35" height="35" viewBox="0 0 35 35" fill="none" xmlns="http://www.w3.org/2000/svg">
<circle cx="17.5" cy="17.5" r="17.5" fill="white"/>
<path d="M8.376 23V11.912H15.144V13.24H9.928V16.536H14.568V17.832H9.928V21.672H15.544V23H8.376ZM25.1166 23C24.882 22.6053 24.61 22.1627 24.3006 21.672C24.002 21.1813 23.6766 20.6747 23.3246 20.152C22.9726 19.6187 22.6046 19.08 22.2206 18.536C21.8473 17.992 21.474 17.4693 21.1006 16.968C20.7273 16.456 20.3646 15.976 20.0126 15.528C19.6606 15.08 19.3353 14.6853 19.0366 14.344V23H17.5166V11.912H18.7486C19.25 12.4453 19.7833 13.0693 20.3486 13.784C20.9246 14.488 21.49 15.2187 22.0446 15.976C22.61 16.7227 23.138 17.4587 23.6286 18.184C24.13 18.9093 24.5513 19.5547 24.8926 20.12V11.912H26.4126V23H25.1166Z" fill="black"/>
</svg>
