<svg width="80" height="80" viewBox="0 0 80 80" fill="none" xmlns="http://www.w3.org/2000/svg">
<g clip-path="url(#clip0_2_5)">
<path fill-rule="evenodd" clip-rule="evenodd" d="M9.40408 0H71.0289C71.0286 0.0259631 71.0279 0.0519262 71.0279 0.0778893C71.0279 5.08011 75.0252 9.14866 80 9.26364V70.9332C75.0648 71.0474 71.0924 75.0524 71.0294 80H9.40334C9.40408 79.9523 9.40507 79.9046 9.40507 79.8566C9.40507 74.7819 5.29128 70.6679 0.216607 70.6679C0.144157 70.6679 0.0719549 70.6689 0 70.6706V9.26364C0.0719549 9.26537 0.144157 9.26636 0.216607 9.26636C5.29128 9.26636 9.40507 5.15256 9.40507 0.0778893C9.40507 0.0519262 9.40433 0.0259631 9.40408 0V0Z" fill="black"/>
<path fill-rule="evenodd" clip-rule="evenodd" d="M11.4275 2.22394C10.5467 6.85156 6.87109 10.4894 2.22394 11.3142V68.62C6.89309 69.4488 10.5813 73.1173 11.4396 77.7761H69.0456C69.9614 73.3896 73.3967 69.9226 77.7758 68.9684V11.2284C73.327 10.2596 69.8581 6.69899 69.0055 2.22369H11.4272L11.4275 2.22394Z" fill="white"/>
<path d="M15.2666 35.6352V22.6908H12.9771V22.1557H20.0591V22.6908H17.7518V35.6352H20.0591V36.1666H12.9771V35.6352H15.2666ZM24.2315 35.6352V22.6908H22.0491V22.1557H28.6603C30.1224 22.1557 31.3741 22.3626 32.4153 22.7798C33.4566 23.1935 34.3267 24.0028 35.022 25.2117C35.721 26.4206 36.067 27.7328 36.067 29.145C36.067 30.6427 35.6854 31.9799 34.9187 33.1566C34.1521 34.3334 33.2711 35.1286 32.2692 35.5457C31.2707 35.9594 30.0547 36.1661 28.6175 36.1661H22.0491V35.6347H24.2315V35.6352ZM26.717 22.6908V35.6352H28.5357C29.4879 35.6352 30.2688 35.546 30.8714 35.3714C31.474 35.2003 31.9697 34.8188 32.3656 34.234C32.7578 33.6492 33.0253 32.9074 33.1643 32.0088C33.3035 31.1102 33.371 29.937 33.371 28.4892C33.371 26.7455 33.15 25.4473 32.7078 24.5915C32.2657 23.7357 31.7237 23.2043 31.0853 22.9976C30.4434 22.7909 29.6091 22.691 28.5785 22.691H26.717V22.6908ZM43.2063 22.6908V28.6959H44.4686C44.9145 28.6959 45.2923 28.6531 45.6026 28.5676C45.9129 28.4786 46.1911 28.2432 46.4371 27.8616C46.6869 27.4764 46.8258 26.8775 46.8614 26.0642H47.4034V31.9979H46.8614C46.8043 30.8711 46.587 30.1259 46.2089 29.7691C45.8274 29.409 45.2497 29.2305 44.4686 29.2305H43.2063V35.635H46.0556C47.6747 35.635 48.7906 35.2925 49.4147 34.615C50.0388 33.9338 50.4097 32.8891 50.5274 31.4769H51.0623L50.9268 36.1661H38.503V35.6347H40.7282V22.6903H38.503V22.1552H50.4134L50.6523 25.8959H50.1209C49.9392 24.7619 49.5683 23.9417 49.0048 23.4425C48.4378 22.9395 47.4999 22.69 46.1839 22.69H43.2063V22.6908ZM61.2467 31.7981H56.7964L55.363 35.6352H57.9553V36.1666H52.8775V35.6352H54.8101L59.9201 21.8313H60.2411L65.1407 35.6352H67.0234V36.1666H60.3479V35.6352H62.6124L61.2465 31.7981H61.2467ZM56.9925 31.2668H61.0578L59.0824 25.6575H59.0431L56.9925 31.2668Z" fill="black"/>
<path d="M13.0144 57.47V44.5255H10.8106V43.9904H22.6354L22.8137 48.2231H22.3429C22.3429 48.0911 22.2217 47.6099 21.9791 46.786C21.7368 45.9624 21.3765 45.3773 20.9095 45.0351C20.4387 44.6964 19.6472 44.5252 18.531 44.5252H15.4928V50.5944H16.067C16.6802 50.5944 17.1616 50.5516 17.5182 50.4696C17.8747 50.384 18.1814 50.1521 18.4417 49.7671C18.7021 49.3855 18.8626 48.7829 18.916 47.9628H19.4508V53.8964H18.916C18.8626 53.005 18.7199 52.356 18.4951 51.9566C18.2669 51.5573 17.9818 51.3113 17.6322 51.222C17.2828 51.1293 16.762 51.083 16.0667 51.083H15.4926V57.4697H17.9566V58.0011H10.8103V57.4697H13.0142L13.0144 57.47ZM29.8244 53.6329H25.3741L23.9407 57.47H26.5331V58.0013H21.4552V57.47H23.3878L28.4979 43.666H28.8188L33.7184 57.47H35.6011V58.0013H28.9256V57.47H31.1901L29.8242 53.6329H29.8244ZM25.5702 53.1015H29.6355L27.6601 47.4922H27.6208L25.5702 53.1015ZM39.6239 57.47V44.5255H37.42V43.9904H45.0977C46.0999 43.9904 46.9235 44.0797 47.5689 44.2542C48.2108 44.4253 48.7669 44.7856 49.2342 45.3348C49.7013 45.8803 49.933 46.5081 49.933 47.2212C49.933 48.1054 49.5942 48.8223 48.9096 49.3714C48.2283 49.9206 47.0731 50.3378 45.4434 50.6159V50.6659C46.6129 50.8976 47.5721 51.3434 48.3211 52.0031C49.07 52.6663 49.4444 53.7862 49.4444 55.3694C49.4444 56.2752 49.548 56.8528 49.7619 57.106C49.9758 57.3629 50.2683 57.4875 50.6427 57.4875C50.8887 57.4875 51.1812 57.4413 51.5234 57.3414V57.8549C50.9171 58.0654 50.3323 58.1687 49.7653 58.1687C48.617 58.1687 47.8075 57.8478 47.3335 57.2059C46.8592 56.5674 46.631 55.9399 46.6416 55.3266L46.6844 53.5508C46.6844 52.9304 46.4883 52.3206 46.0959 51.7178C45.7 51.1152 44.8086 50.812 43.4143 50.812H42.109V57.4697H44.3128V58.0011H37.4198V57.4697H39.6237L39.6239 57.47ZM42.1094 44.5255V50.3237H43.9887C44.7982 50.3237 45.4152 50.2703 45.8395 50.1595C46.2638 50.0527 46.6025 49.7708 46.8595 49.3143C47.1127 48.8579 47.2375 48.1304 47.2375 47.1354C47.2375 46.3224 47.1092 45.727 46.8523 45.3489C46.5956 44.9745 46.2818 44.7426 45.9181 44.6536C45.5509 44.568 45.0729 44.5252 44.481 44.5252H42.1097L42.1094 44.5255ZM53.2068 43.9904H58.2313L61.2304 53.8967H61.2697L64.2901 43.9904H69.1897V44.5255H67.1107V57.47H69.1897V58.0013H62.5963V57.47H64.7394V44.2829H64.6966L60.5279 58.0013H60.0502L55.8815 44.2829H55.8387V57.47H57.9821V58.0013H53.2071V57.47H55.3074V44.5255H53.2071V43.9904H53.2068Z" fill="black"/>
</g>
<defs>
<clipPath id="clip0_2_5">
<rect width="80" height="80" fill="white"/>
</clipPath>
</defs>
</svg>
