<svg width="26" height="25" viewBox="0 0 26 25" fill="none" xmlns="http://www.w3.org/2000/svg">
<g clip-path="url(#clip0_30_229)">
<path d="M15.6809 23.8335C15.2487 23.8335 14.8497 23.6026 14.6548 23.2343L11.2522 16.8036C11.0653 16.4505 11.0974 16.028 11.3347 15.7019L16.8273 8.66678L9.3812 13.8559C9.03613 14.0813 8.58901 14.1094 8.21528 13.9339L1.41115 10.7197C1.00302 10.5258 0.754241 10.1217 0.779463 9.69053C0.803538 9.25936 1.09817 8.88236 1.52694 8.73394L23.3093 1.15061C23.7278 1.00652 24.1989 1.10077 24.5164 1.40086C24.8329 1.69878 24.9361 2.14511 24.7813 2.54161L16.7562 23.125C16.598 23.5301 16.2002 23.8085 15.7439 23.8313C15.7233 23.8323 15.7015 23.8335 15.6809 23.8335Z" fill="#1E1E1E"/>
</g>
<defs>
<clipPath id="clip0_30_229">
<rect width="25" height="25" fill="white" transform="translate(0.15094)"/>
</clipPath>
</defs>
</svg>
