<svg width="35" height="35" viewBox="0 0 35 35" fill="none" xmlns="http://www.w3.org/2000/svg">
<circle cx="17.5" cy="17.5" r="17.5" fill="white"/>
<path d="M17.829 15.5609C19.4172 15.5609 20.7924 14.9913 21.9163 13.8674C23.0398 12.7436 23.6096 11.3687 23.6096 9.78026C23.6096 8.19237 23.04 6.81726 21.9161 5.69317C20.7922 4.56964 19.4171 4 17.829 4C16.2405 4 14.8656 4.56964 13.7419 5.69336C12.6182 6.81707 12.0483 8.19219 12.0483 9.78026C12.0483 11.3687 12.6182 12.7438 13.7419 13.8675C14.866 14.9911 16.2411 15.5609 17.829 15.5609V15.5609ZM14.7365 6.6878C15.5988 5.82556 16.6102 5.40643 17.829 5.40643C19.0475 5.40643 20.0592 5.82556 20.9216 6.6878C21.7839 7.55023 22.2032 8.56188 22.2032 9.78026C22.2032 10.999 21.7839 12.0105 20.9216 12.8729C20.0592 13.7353 19.0475 14.1545 17.829 14.1545C16.6106 14.1545 15.5991 13.7351 14.7365 12.8729C13.8741 12.0107 13.4548 10.999 13.4548 9.78026C13.4548 8.56188 13.8741 7.55023 14.7365 6.6878Z" fill="black"/>
<path d="M27.9435 22.4548C27.9111 21.9871 27.8456 21.477 27.7491 20.9383C27.6517 20.3956 27.5262 19.8825 27.3761 19.4136C27.2208 18.9289 27.0101 18.4503 26.7491 17.9916C26.4787 17.5155 26.1608 17.101 25.8041 16.7599C25.4312 16.403 24.9745 16.1161 24.4464 15.9068C23.9202 15.6986 23.337 15.5931 22.7131 15.5931C22.4681 15.5931 22.2312 15.6936 21.7736 15.9915C21.492 16.1752 21.1626 16.3876 20.7949 16.6225C20.4805 16.8228 20.0546 17.0105 19.5286 17.1804C19.0153 17.3465 18.4942 17.4308 17.9797 17.4308C17.4655 17.4308 16.9444 17.3465 16.4308 17.1804C15.9053 17.0107 15.4792 16.823 15.1653 16.6227C14.8011 16.39 14.4716 16.1776 14.1857 15.9914C13.7285 15.6935 13.4916 15.5929 13.2466 15.5929C12.6226 15.5929 12.0396 15.6986 11.5135 15.907C10.9858 16.1159 10.5289 16.4028 10.1556 16.76C9.79889 17.1013 9.48102 17.5157 9.21075 17.9916C8.9502 18.4503 8.73926 18.9287 8.58398 19.4138C8.43402 19.8827 8.30859 20.3956 8.21118 20.9383C8.1145 21.4763 8.04913 21.9866 8.01672 22.4553C7.98486 22.9137 7.96875 23.3906 7.96875 23.8726C7.96875 25.1254 8.367 26.1396 9.15234 26.8876C9.92798 27.6257 10.9541 27.9999 12.2023 27.9999H23.7585C25.0063 27.9999 26.0325 27.6257 26.8083 26.8876C27.5938 26.1401 27.9921 25.1256 27.9921 23.8724C27.9919 23.3888 27.9756 22.9118 27.9435 22.4548V22.4548ZM25.8386 25.8686C25.326 26.3564 24.6456 26.5935 23.7583 26.5935H12.2023C11.3148 26.5935 10.6344 26.3564 10.1221 25.8688C9.61945 25.3903 9.37518 24.7372 9.37518 23.8726C9.37518 23.4229 9.39001 22.9788 9.41968 22.5526C9.44861 22.1344 9.50775 21.6749 9.59546 21.1868C9.68207 20.7047 9.7923 20.2522 9.9234 19.8426C10.0492 19.4499 10.2208 19.0609 10.4335 18.6863C10.6366 18.3292 10.8702 18.0229 11.1281 17.7761C11.3692 17.5452 11.6732 17.3562 12.0313 17.2145C12.3625 17.0834 12.7348 17.0116 13.1389 17.0008C13.1882 17.027 13.2759 17.077 13.418 17.1696C13.7071 17.3581 14.0403 17.573 14.4088 17.8083C14.824 18.0731 15.3591 18.3122 15.9983 18.5186C16.6518 18.7299 17.3183 18.8372 17.9799 18.8372C18.6414 18.8372 19.3081 18.7299 19.9612 18.5188C20.601 18.312 21.1359 18.0731 21.5517 17.8079C21.9287 17.567 22.2526 17.3582 22.5417 17.1696C22.6838 17.0772 22.7715 17.027 22.8208 17.0008C23.2251 17.0116 23.5974 17.0834 23.9288 17.2145C24.2867 17.3562 24.5907 17.5454 24.8318 17.7761C25.0897 18.0227 25.3233 18.3291 25.5264 18.6865C25.7393 19.0609 25.9111 19.45 26.0367 19.8424C26.168 20.2526 26.2784 20.7049 26.3648 21.1866C26.4523 21.6757 26.5117 22.1353 26.5406 22.5528V22.5531C26.5704 22.9777 26.5854 23.4216 26.5856 23.8726C26.5854 24.7374 26.3412 25.3903 25.8386 25.8686V25.8686Z" fill="black"/>
</svg>
